<svg width="168" height="168" viewBox="0 0 168 168" fill="none" xmlns="http://www.w3.org/2000/svg">
<circle cx="84" cy="84" r="84" fill="#040713"/>
<path d="M29.5475 70.3423C29.3015 71.2578 28.9046 72.0645 28.3568 72.7622C27.8121 73.4484 27.1649 74.0076 26.415 74.4399C25.6567 74.8574 24.8284 75.1195 23.93 75.226C23.0315 75.3326 22.0956 75.2551 21.1221 74.9935C20.1602 74.7351 19.3157 74.3405 18.5885 73.8096C17.8529 73.2641 17.2674 72.6222 16.832 71.8839C16.3851 71.1426 16.1036 70.3401 15.9878 69.4764C15.8603 68.6097 15.9211 67.7127 16.1702 66.7856C16.4161 65.8701 16.7921 65.0951 17.298 64.4606C17.8071 63.8146 18.3835 63.3109 19.0273 62.9496C19.6595 62.5851 20.3007 62.3722 20.9509 62.3108L21.3471 64.3742C20.5686 64.4509 19.8824 64.7387 19.2886 65.2377C18.6832 65.7336 18.2637 66.4161 18.0302 67.2853C17.7998 68.1429 17.7987 68.9565 18.0268 69.726C18.255 70.4956 18.6785 71.1623 19.2974 71.7262C19.9194 72.2785 20.7113 72.6838 21.6732 72.9423C22.6351 73.2007 23.5309 73.2426 24.3607 73.0679C25.1819 72.8785 25.8841 72.508 26.4672 71.9564C27.0387 71.4016 27.4396 70.6955 27.67 69.8379C27.8631 69.1194 27.8941 68.4257 27.7632 67.7568C27.6238 67.0732 27.3358 66.4802 26.8992 65.9777C26.451 65.4721 25.8677 65.1228 25.1492 64.9297L24.2626 64.6916L25.3446 63.9944L24.0275 68.8966L22.2892 68.4295L23.9051 62.4148L25.1219 62.7417C26.0722 62.9971 26.8805 63.3881 27.5466 63.915C28.2011 64.4388 28.7144 65.0488 29.0864 65.7452C29.4585 66.4416 29.6813 67.1849 29.7548 67.975C29.8283 68.7651 29.7592 69.5542 29.5475 70.3423Z" fill="white"/>
<path d="M33.9429 58.2938L22.5988 51.1427L27.3119 43.6662L28.9107 44.6741L25.3303 50.3538L28.5889 52.4079L31.9773 47.0328L33.5761 48.0407L30.1877 53.4158L33.4767 55.4892L37.0571 49.8095L38.656 50.8174L33.9429 58.2938Z" fill="white"/>
<path d="M44.612 44.3282L36.7595 35.8991L34.1517 38.3285L32.8634 36.9456L39.5803 30.6881L40.8686 32.071L38.3004 34.4636L46.1529 42.8926L44.612 44.3282Z" fill="white"/>
<path d="M65.9076 31.484C65.1138 31.7589 64.3257 31.8667 63.5433 31.8074C62.7569 31.7369 62.0353 31.5232 61.3784 31.1665C60.7215 30.8098 60.1619 30.3305 59.6995 29.7287L61.1531 28.4253C61.7302 29.1017 62.3862 29.5476 63.1211 29.763C63.856 29.9784 64.609 29.9526 65.3801 29.6856C65.8337 29.5286 66.207 29.3231 66.5001 29.0693C66.7892 28.8041 66.9794 28.5096 67.0705 28.186C67.173 27.8585 67.1653 27.5246 67.0475 27.1844C66.8865 26.7195 66.6285 26.3961 66.2735 26.2143C65.9184 26.0324 65.4583 25.9505 64.8931 25.9684L62.2526 26.0445C61.198 26.0795 60.3172 25.8829 59.6102 25.4547C58.8992 25.0151 58.4024 24.3871 58.1197 23.5706C57.8723 22.8562 57.8321 22.1717 57.9991 21.517C58.1622 20.851 58.4969 20.2589 59.0032 19.7407C59.5209 19.2186 60.1766 18.8201 60.9703 18.5453C61.7301 18.2822 62.4689 18.1788 63.1868 18.235C63.9008 18.2799 64.5594 18.4582 65.1626 18.77C65.7772 19.0778 66.2925 19.5026 66.7086 20.0443L65.295 21.3528C64.8139 20.7702 64.244 20.3897 63.5854 20.2114C62.9381 20.0291 62.2687 20.0577 61.577 20.2972C61.1574 20.4425 60.8144 20.6438 60.5479 20.9012C60.2775 21.1472 60.0987 21.4377 60.0115 21.7727C59.9317 22.0924 59.9527 22.428 60.0744 22.7795C60.2158 23.1877 60.4718 23.5054 60.8426 23.7326C61.2133 23.9598 61.6926 24.0605 62.2806 24.0348L64.7332 23.9665C65.8485 23.9232 66.7613 24.1024 67.4719 24.504C68.1785 24.8943 68.679 25.5147 68.9735 26.3651C69.2169 27.0682 69.2457 27.7567 69.06 28.4305C68.8856 29.1005 68.5302 29.7061 67.9938 30.2474C67.4534 30.7774 66.758 31.1896 65.9076 31.484Z" fill="white"/>
<path d="M79.4002 28.3734L78.6328 16.879L75.0767 17.1164L74.9508 15.2306L84.1104 14.619L84.2363 16.5048L80.7341 16.7387L81.5016 28.2331L79.4002 28.3734Z" fill="white"/>
<path d="M90.0843 28.0951L97.4719 15.9505L100.043 16.4941L101.883 30.5895L99.6645 30.1204L99.2825 26.9672L93.9464 25.8392L92.3032 28.5642L90.0843 28.0951ZM94.9361 24.1166L99.0394 24.9841L98.1667 17.6244L98.7478 17.7473L94.9361 24.1166Z" fill="white"/>
<path d="M107.765 32.9423L114.195 21.1739L118.475 23.5125C119.265 23.944 119.88 24.4711 120.319 25.0939C120.764 25.7062 121.002 26.3834 121.034 27.1257C121.083 27.8631 120.897 28.6163 120.477 29.385C120.034 30.1959 119.449 30.7788 118.722 31.1336C118.005 31.4942 117.233 31.6191 116.404 31.5085L116.532 37.7317L114.416 36.5753L114.33 29.8623L115.158 31.2376L112.046 29.5375L109.629 33.9606L107.765 32.9423ZM112.952 27.8789L115.4 29.2165C115.832 29.4524 116.252 29.5724 116.66 29.5765C117.068 29.5806 117.437 29.4812 117.766 29.2784C118.112 29.0708 118.397 28.7616 118.622 28.3509C118.846 27.9402 118.949 27.5385 118.931 27.1459C118.93 26.7484 118.814 26.3844 118.584 26.0538C118.36 25.7128 118.033 25.4243 117.601 25.1884L115.152 23.8508L112.952 27.8789Z" fill="white"/>
<path d="M123.159 43.2805L131.151 34.9835L128.584 32.511L129.895 31.1498L136.507 37.5183L135.196 38.8795L132.668 36.4445L124.676 44.7415L123.159 43.2805Z" fill="white"/>
<path d="M131.109 52.1081L142.571 45.1469L147.158 52.7009L145.543 53.682L142.058 47.9435L138.765 49.943L142.064 55.3739L140.448 56.355L137.15 50.9241L133.827 52.9424L137.312 58.6809L135.697 59.662L131.109 52.1081Z" fill="white"/>
<path d="M138.295 65.4756L151.274 62.1043L152.378 66.3552C152.728 67.7025 152.758 68.9406 152.469 70.0697C152.194 71.2073 151.64 72.1758 150.806 72.9751C149.972 73.7744 148.91 74.3415 147.621 74.6763C146.344 75.0082 145.14 75.0294 144.011 74.7399C142.894 74.4475 141.933 73.8727 141.127 73.0156C140.325 72.1702 139.749 71.0738 139.399 69.7265L138.295 65.4756ZM140.658 67.0562L141.237 69.2862C141.475 70.2038 141.874 70.9496 142.432 71.5237C142.993 72.1094 143.671 72.4976 144.464 72.6882C145.257 72.8789 146.13 72.8505 147.083 72.6031C148.035 72.3557 148.804 71.9514 149.39 71.3901C149.99 70.8375 150.395 70.1745 150.603 69.4013C150.811 68.6281 150.796 67.7827 150.558 66.8652L149.979 64.6352L140.658 67.0562Z" fill="white"/>
<path d="M139.308 98.1167C139.554 97.2012 139.951 96.3945 140.499 95.6968C141.043 95.0106 141.691 94.4514 142.44 94.0191C143.199 93.6016 144.027 93.3395 144.926 93.233C145.824 93.1264 146.76 93.2039 147.733 93.4655C148.695 93.7239 149.54 94.1185 150.267 94.6494C151.003 95.1949 151.588 95.8368 152.023 96.5751C152.47 97.3164 152.752 98.1189 152.868 98.9826C152.995 99.8493 152.934 100.746 152.685 101.673C152.439 102.589 152.063 103.364 151.557 103.998C151.048 104.644 150.472 105.148 149.828 105.509C149.196 105.874 148.555 106.087 147.905 106.148L147.508 104.085C148.287 104.008 148.973 103.72 149.567 103.221C150.172 102.725 150.592 102.043 150.825 101.174C151.056 100.316 151.057 99.5025 150.829 98.733C150.601 97.9634 150.177 97.2967 149.558 96.7328C148.936 96.1805 148.144 95.7751 147.182 95.5167C146.22 95.2583 145.325 95.2164 144.495 95.3911C143.674 95.5805 142.971 95.951 142.388 96.5026C141.817 97.0573 141.416 97.7635 141.185 98.6211C140.992 99.3396 140.961 100.033 141.092 100.702C141.232 101.386 141.52 101.979 141.956 102.481C142.404 102.987 142.988 103.336 143.706 103.529L144.593 103.767L143.511 104.465L144.828 99.5624L146.566 100.029L144.95 106.044L143.734 105.717C142.783 105.462 141.975 105.071 141.309 104.544C140.654 104.02 140.141 103.41 139.769 102.714C139.397 102.017 139.174 101.274 139.101 100.484C139.027 99.6938 139.096 98.9048 139.308 98.1167Z" fill="white"/>
<path d="M134.913 110.165L146.257 117.316L141.544 124.793L139.945 123.785L143.525 118.105L140.267 116.051L136.878 121.426L135.279 120.418L138.668 115.043L135.379 112.97L131.798 118.649L130.2 117.642L134.913 110.165Z" fill="white"/>
<path d="M124.244 124.131L132.096 132.56L134.704 130.13L135.992 131.513L129.275 137.771L127.987 136.388L130.555 133.995L122.703 125.566L124.244 124.131Z" fill="white"/>
<path d="M102.948 136.975C103.742 136.7 104.53 136.592 105.312 136.652C106.099 136.722 106.82 136.936 107.477 137.292C108.134 137.649 108.694 138.128 109.156 138.73L107.702 140.034C107.125 139.357 106.469 138.911 105.734 138.696C104.999 138.481 104.246 138.506 103.475 138.773C103.022 138.93 102.648 139.136 102.355 139.39C102.066 139.655 101.876 139.949 101.785 140.273C101.683 140.601 101.69 140.934 101.808 141.275C101.969 141.739 102.227 142.063 102.582 142.245C102.937 142.427 103.397 142.509 103.962 142.491L106.603 142.414C107.657 142.379 108.538 142.576 109.245 143.004C109.956 143.444 110.453 144.072 110.736 144.888C110.983 145.603 111.023 146.287 110.856 146.942C110.693 147.608 110.359 148.2 109.852 148.718C109.335 149.24 108.679 149.639 107.885 149.914C107.125 150.177 106.387 150.28 105.669 150.224C104.955 150.179 104.296 150.001 103.693 149.689C103.078 149.381 102.563 148.956 102.147 148.415L103.56 147.106C104.042 147.689 104.611 148.069 105.27 148.248C105.917 148.43 106.587 148.401 107.279 148.162C107.698 148.016 108.041 147.815 108.308 147.558C108.578 147.312 108.757 147.021 108.844 146.686C108.924 146.367 108.903 146.031 108.781 145.679C108.64 145.271 108.384 144.954 108.013 144.726C107.642 144.499 107.163 144.398 106.575 144.424L104.122 144.492C103.007 144.536 102.094 144.357 101.384 143.955C100.677 143.565 100.176 142.944 99.882 142.094C99.6386 141.391 99.6097 140.702 99.7955 140.028C99.9699 139.359 100.325 138.753 100.862 138.212C101.402 137.682 102.097 137.269 102.948 136.975Z" fill="white"/>
<path d="M89.4552 140.086L90.2227 151.58L93.7788 151.343L93.9047 153.228L84.7451 153.84L84.6191 151.954L88.1213 151.72L87.3539 140.226L89.4552 140.086Z" fill="white"/>
<path d="M78.7712 140.364L71.3836 152.508L68.8124 151.965L66.972 137.869L69.1909 138.339L69.573 141.492L74.9091 142.62L76.5522 139.895L78.7712 140.364ZM73.9194 144.342L69.8161 143.475L70.6888 150.835L70.1076 150.712L73.9194 144.342Z" fill="white"/>
<path d="M61.09 135.517L54.6609 147.285L50.3801 144.946C49.5903 144.515 48.9758 143.988 48.5366 143.365C48.0916 142.753 47.8531 142.076 47.8211 141.333C47.7727 140.596 47.9585 139.843 48.3785 139.074C48.8215 138.263 49.4065 137.68 50.1337 137.325C50.8503 136.965 51.6227 136.84 52.4511 136.951L52.323 130.727L54.4397 131.884L54.5258 138.597L53.6978 137.221L56.8097 138.921L59.226 134.498L61.09 135.517ZM55.9036 140.58L53.4552 139.242C53.0234 139.007 52.6035 138.887 52.1955 138.883C51.7876 138.878 51.4188 138.978 51.0892 139.181C50.7433 139.388 50.4582 139.697 50.2338 140.108C50.0095 140.519 49.9062 140.92 49.9242 141.313C49.9258 141.711 50.0415 142.075 50.2711 142.405C50.495 142.746 50.8228 143.035 51.2546 143.271L53.7031 144.608L55.9036 140.58Z" fill="white"/>
<path d="M45.6961 125.178L37.7043 133.476L40.2712 135.948L38.96 137.309L32.3483 130.941L33.6595 129.579L36.1875 132.015L44.1793 123.717L45.6961 125.178Z" fill="white"/>
<path d="M37.7467 116.351L26.2849 123.312L21.6971 115.758L23.3126 114.777L26.7978 120.516L30.0901 118.516L26.7918 113.085L28.4072 112.104L31.7056 117.535L35.0287 115.517L31.5435 109.778L33.1589 108.797L37.7467 116.351Z" fill="white"/>
<path d="M30.5609 102.983L17.5815 106.355L16.4774 102.104C16.1274 100.757 16.0972 99.5183 16.3866 98.3893C16.6615 97.2517 17.2158 96.2832 18.0496 95.4839C18.8835 94.6846 19.945 94.1175 21.2342 93.7827C22.5118 93.4508 23.7151 93.4296 24.8442 93.7191C25.9616 94.0115 26.923 94.5863 27.7283 95.4434C28.5306 96.2888 29.1067 97.3852 29.4567 98.7325L30.5609 102.983ZM28.1976 101.403L27.6183 99.1728C27.38 98.2552 26.9817 97.5094 26.4235 96.9353C25.8622 96.3496 25.1848 95.9614 24.3914 95.7708C23.598 95.5801 22.7251 95.6085 21.7727 95.8559C20.8203 96.1032 20.0513 96.5076 19.4656 97.0688C18.8652 97.6215 18.4609 98.2845 18.2526 99.0577C18.0443 99.8309 18.0593 100.676 18.2976 101.594L18.8769 103.824L28.1976 101.403Z" fill="white"/>
<path d="M95.9279 96.1151C92.7397 92.9269 90.9585 88.5932 90.9759 84.0671C90.9933 79.5409 92.8081 75.1933 96.0208 71.9805M96.0208 71.9805C94.43 73.5713 92.5438 74.8356 90.4701 75.7013C88.3962 76.5668 86.1753 77.0167 83.9343 77.0255C81.6931 77.0339 79.4756 76.6011 77.4085 75.7515C75.3413 74.9019 73.4648 73.652 71.8862 72.0735M96.0208 71.9805L71.9792 96.0222" stroke="white" stroke-width="2.5" stroke-linecap="round" stroke-linejoin="round"/>
</svg>
