<svg width="150" height="44" viewBox="0 0 150 44" fill="none" xmlns="http://www.w3.org/2000/svg">
<rect width="150" height="44" rx="22" fill="white"/>
<path d="M41.349 28.392V27.16C40.3143 27.0427 39.4717 26.68 38.821 26.072C38.1703 25.464 37.8343 24.648 37.813 23.624H39.973C39.9943 24.0507 40.1223 24.424 40.357 24.744C40.6023 25.064 40.933 25.2827 41.349 25.4V22.024C41.253 21.992 41.1517 21.96 41.045 21.928C40.949 21.896 40.8477 21.864 40.741 21.832C39.877 21.5333 39.2157 21.1493 38.757 20.68C38.309 20.2107 38.085 19.5867 38.085 18.808C38.0743 17.8907 38.373 17.1547 38.981 16.6C39.589 16.0347 40.3783 15.7093 41.349 15.624V14.328H42.421V15.64C43.381 15.736 44.1543 16.072 44.741 16.648C45.3383 17.2133 45.653 17.944 45.685 18.84H43.493C43.4823 18.5307 43.381 18.248 43.189 17.992C43.0077 17.7253 42.7517 17.5387 42.421 17.432V20.408C42.5063 20.44 42.5917 20.472 42.677 20.504C42.7623 20.5253 42.8477 20.552 42.933 20.584C43.4877 20.776 43.9943 21 44.453 21.256C44.9117 21.512 45.2797 21.8533 45.557 22.28C45.8343 22.696 45.973 23.2347 45.973 23.896C45.973 24.4507 45.8343 24.968 45.557 25.448C45.2903 25.928 44.8903 26.328 44.357 26.648C43.8343 26.9573 43.189 27.1333 42.421 27.176V28.392H41.349ZM40.229 18.664C40.229 19.0053 40.3303 19.2827 40.533 19.496C40.7357 19.6987 41.0077 19.8747 41.349 20.024V17.368C41.0183 17.432 40.7463 17.576 40.533 17.8C40.3303 18.024 40.229 18.312 40.229 18.664ZM43.797 24.04C43.797 23.6133 43.669 23.2773 43.413 23.032C43.157 22.7867 42.8263 22.5787 42.421 22.408V25.448C42.8477 25.384 43.1837 25.2293 43.429 24.984C43.6743 24.7387 43.797 24.424 43.797 24.04ZM47.4879 27V25.512C48.1705 24.9467 48.8319 24.3867 49.4719 23.832C50.1225 23.2773 50.6985 22.728 51.1999 22.184C51.7119 21.64 52.1172 21.112 52.4159 20.6C52.7252 20.0773 52.8799 19.5707 52.8799 19.08C52.8799 18.6213 52.7519 18.216 52.4959 17.864C52.2505 17.512 51.8399 17.336 51.2639 17.336C50.6772 17.336 50.2345 17.528 49.9359 17.912C49.6372 18.296 49.4879 18.76 49.4879 19.304H47.5039C47.5252 18.4827 47.7065 17.8 48.0479 17.256C48.3892 16.7013 48.8425 16.2907 49.4079 16.024C49.9732 15.7467 50.6079 15.608 51.3119 15.608C52.4532 15.608 53.3385 15.9227 53.9679 16.552C54.6079 17.1707 54.9279 17.976 54.9279 18.968C54.9279 19.5867 54.7839 20.1893 54.4959 20.776C54.2185 21.3627 53.8505 21.928 53.3919 22.472C52.9332 23.016 52.4372 23.528 51.9039 24.008C51.3705 24.4773 50.8532 24.9147 50.3519 25.32H55.1999V27H47.4879ZM56.0365 28.856L56.9485 24.872H58.9325L57.3805 28.856H56.0365ZM64.2676 27.192C63.5316 27.192 62.865 27.064 62.2676 26.808C61.6703 26.5413 61.1903 26.136 60.8276 25.592C60.465 25.048 60.273 24.3653 60.2516 23.544H62.2676C62.2783 24.088 62.4543 24.5467 62.7956 24.92C63.1476 25.2827 63.6383 25.464 64.2676 25.464C64.865 25.464 65.3236 25.2987 65.6436 24.968C65.9636 24.6373 66.1236 24.2213 66.1236 23.72C66.1236 23.1333 65.9103 22.6907 65.4836 22.392C65.0676 22.0827 64.529 21.928 63.8676 21.928H63.0356V20.248H63.8836C64.4276 20.248 64.881 20.12 65.2436 19.864C65.6063 19.608 65.7876 19.2293 65.7876 18.728C65.7876 18.312 65.649 17.9813 65.3716 17.736C65.105 17.48 64.7316 17.352 64.2516 17.352C63.729 17.352 63.3183 17.5067 63.0196 17.816C62.7316 18.1253 62.5716 18.504 62.5396 18.952H60.5396C60.5823 17.9173 60.9396 17.1013 61.6116 16.504C62.2943 15.9067 63.1743 15.608 64.2516 15.608C65.0196 15.608 65.665 15.7467 66.1876 16.024C66.721 16.2907 67.121 16.648 67.3876 17.096C67.665 17.544 67.8036 18.04 67.8036 18.584C67.8036 19.2133 67.6276 19.7467 67.2756 20.184C66.9343 20.6107 66.5076 20.8987 65.9956 21.048C66.625 21.176 67.137 21.4853 67.5316 21.976C67.9263 22.456 68.1236 23.064 68.1236 23.8C68.1236 24.4187 67.9743 24.984 67.6756 25.496C67.377 26.008 66.9396 26.4187 66.3636 26.728C65.7983 27.0373 65.0996 27.192 64.2676 27.192ZM73.5683 27.192C72.7896 27.192 72.1336 27.0427 71.6003 26.744C71.0669 26.4347 70.6509 26.0347 70.3523 25.544C70.0536 25.0533 69.8776 24.5253 69.8243 23.96H71.7283C71.8136 24.4507 72.0163 24.8293 72.3363 25.096C72.6669 25.3627 73.0829 25.496 73.5843 25.496C74.2989 25.496 74.8749 25.1707 75.3123 24.52C75.7496 23.8587 75.9843 22.856 76.0163 21.512C75.7603 21.9493 75.3709 22.312 74.8483 22.6C74.3363 22.888 73.7709 23.032 73.1523 23.032C72.5336 23.032 71.9523 22.8827 71.4083 22.584C70.8643 22.2853 70.4216 21.864 70.0803 21.32C69.7389 20.776 69.5683 20.136 69.5683 19.4C69.5683 18.728 69.7336 18.104 70.0643 17.528C70.3949 16.952 70.8536 16.488 71.4403 16.136C72.0269 15.784 72.7149 15.608 73.5043 15.608C74.3469 15.608 75.0563 15.7627 75.6323 16.072C76.2083 16.3813 76.6669 16.7973 77.0083 17.32C77.3603 17.8427 77.6109 18.424 77.7603 19.064C77.9203 19.704 78.0003 20.36 78.0003 21.032C78.0003 22.28 77.8243 23.368 77.4722 24.296C77.1309 25.2133 76.6243 25.928 75.9523 26.44C75.2909 26.9413 74.4963 27.192 73.5683 27.192ZM73.6323 21.304C74.0269 21.304 74.3843 21.2187 74.7043 21.048C75.0243 20.8667 75.2749 20.632 75.4563 20.344C75.6376 20.0453 75.7283 19.7147 75.7283 19.352C75.7283 18.776 75.5256 18.3013 75.1203 17.928C74.7256 17.5547 74.2243 17.368 73.6163 17.368C73.0189 17.368 72.5229 17.5547 72.1283 17.928C71.7336 18.2907 71.5363 18.7547 71.5363 19.32C71.5363 19.9173 71.7336 20.3973 72.1283 20.76C72.5229 21.1227 73.0243 21.304 73.6323 21.304ZM84.4769 27.192C83.4422 27.192 82.5569 26.952 81.8209 26.472C81.0849 25.9813 80.5142 25.304 80.1089 24.44C79.7142 23.5653 79.5169 22.552 79.5169 21.4C79.5169 20.2587 79.7142 19.2507 80.1089 18.376C80.5142 17.5013 81.0849 16.824 81.8209 16.344C82.5569 15.8533 83.4422 15.608 84.4769 15.608C85.5115 15.608 86.3969 15.8533 87.1329 16.344C87.8689 16.824 88.4342 17.5013 88.8289 18.376C89.2342 19.2507 89.4369 20.2587 89.4369 21.4C89.4369 22.552 89.2342 23.5653 88.8289 24.44C88.4342 25.304 87.8689 25.9813 87.1329 26.472C86.3969 26.952 85.5115 27.192 84.4769 27.192ZM84.4769 25.352C85.3195 25.352 86.0075 25 86.5409 24.296C87.0742 23.592 87.3409 22.6267 87.3409 21.4C87.3409 20.1733 87.0742 19.208 86.5409 18.504C86.0075 17.8 85.3195 17.448 84.4769 17.448C83.6235 17.448 82.9302 17.8 82.3969 18.504C81.8742 19.208 81.6129 20.1733 81.6129 21.4C81.6129 22.6267 81.8742 23.592 82.3969 24.296C82.9302 25 83.6235 25.352 84.4769 25.352ZM95.8363 27.192C94.8016 27.192 93.9163 26.952 93.1803 26.472C92.4443 25.9813 91.8736 25.304 91.4683 24.44C91.0736 23.5653 90.8763 22.552 90.8763 21.4C90.8763 20.2587 91.0736 19.2507 91.4683 18.376C91.8736 17.5013 92.4443 16.824 93.1803 16.344C93.9163 15.8533 94.8016 15.608 95.8363 15.608C96.8709 15.608 97.7563 15.8533 98.4923 16.344C99.2283 16.824 99.7936 17.5013 100.188 18.376C100.594 19.2507 100.796 20.2587 100.796 21.4C100.796 22.552 100.594 23.5653 100.188 24.44C99.7936 25.304 99.2283 25.9813 98.4923 26.472C97.7563 26.952 96.8709 27.192 95.8363 27.192ZM95.8363 25.352C96.6789 25.352 97.3669 25 97.9003 24.296C98.4336 23.592 98.7003 22.6267 98.7003 21.4C98.7003 20.1733 98.4336 19.208 97.9003 18.504C97.3669 17.8 96.6789 17.448 95.8363 17.448C94.9829 17.448 94.2896 17.8 93.7563 18.504C93.2336 19.208 92.9723 20.1733 92.9723 21.4C92.9723 22.6267 93.2336 23.592 93.7563 24.296C94.2896 25 94.9829 25.352 95.8363 25.352ZM107.196 27.192C106.161 27.192 105.276 26.952 104.54 26.472C103.804 25.9813 103.233 25.304 102.828 24.44C102.433 23.5653 102.236 22.552 102.236 21.4C102.236 20.2587 102.433 19.2507 102.828 18.376C103.233 17.5013 103.804 16.824 104.54 16.344C105.276 15.8533 106.161 15.608 107.196 15.608C108.23 15.608 109.116 15.8533 109.852 16.344C110.588 16.824 111.153 17.5013 111.548 18.376C111.953 19.2507 112.156 20.2587 112.156 21.4C112.156 22.552 111.953 23.5653 111.548 24.44C111.153 25.304 110.588 25.9813 109.852 26.472C109.116 26.952 108.23 27.192 107.196 27.192ZM107.196 25.352C108.038 25.352 108.726 25 109.26 24.296C109.793 23.592 110.06 22.6267 110.06 21.4C110.06 20.1733 109.793 19.208 109.26 18.504C108.726 17.8 108.038 17.448 107.196 17.448C106.342 17.448 105.649 17.8 105.116 18.504C104.593 19.208 104.332 20.1733 104.332 21.4C104.332 22.6267 104.593 23.592 105.116 24.296C105.649 25 106.342 25.352 107.196 25.352Z" fill="#040713"/>
</svg>
