<svg width="23" height="23" viewBox="0 0 23 23" fill="none" xmlns="http://www.w3.org/2000/svg">
<path d="M11.2175 5.6239C8.11206 5.6239 5.60718 8.12878 5.60718 11.2343C5.60718 14.3397 8.11206 16.8446 11.2175 16.8446C14.323 16.8446 16.8279 14.3397 16.8279 11.2343C16.8279 8.12878 14.323 5.6239 11.2175 5.6239ZM11.2175 14.8817C9.21069 14.8817 7.57007 13.246 7.57007 11.2343C7.57007 9.22253 9.20581 7.58679 11.2175 7.58679C13.2292 7.58679 14.865 9.22253 14.865 11.2343C14.865 13.246 13.2244 14.8817 11.2175 14.8817ZM18.366 5.39441C18.366 6.12195 17.78 6.703 17.0574 6.703C16.3298 6.703 15.7488 6.11707 15.7488 5.39441C15.7488 4.67175 16.3347 4.08582 17.0574 4.08582C17.78 4.08582 18.366 4.67175 18.366 5.39441ZM22.0818 6.72253C21.9988 4.9696 21.5984 3.41687 20.3142 2.13757C19.0349 0.858276 17.4822 0.457886 15.7292 0.369995C13.9226 0.267456 8.50757 0.267456 6.70093 0.369995C4.95288 0.453003 3.40015 0.853393 2.11597 2.13269C0.831787 3.41199 0.436279 4.96472 0.348389 6.71765C0.24585 8.52429 0.24585 13.9393 0.348389 15.746C0.431396 17.4989 0.831787 19.0516 2.11597 20.3309C3.40015 21.6102 4.948 22.0106 6.70093 22.0985C8.50757 22.201 13.9226 22.201 15.7292 22.0985C17.4822 22.0155 19.0349 21.6151 20.3142 20.3309C21.5935 19.0516 21.9939 17.4989 22.0818 15.746C22.1843 13.9393 22.1843 8.52917 22.0818 6.72253ZM19.7478 17.6844C19.3669 18.6415 18.6296 19.3788 17.6677 19.7645C16.2273 20.3358 12.8093 20.204 11.2175 20.204C9.62573 20.204 6.20288 20.3309 4.76733 19.7645C3.8103 19.3837 3.073 18.6464 2.68726 17.6844C2.11597 16.244 2.2478 12.826 2.2478 11.2343C2.2478 9.64246 2.12085 6.2196 2.68726 4.78406C3.06812 3.82703 3.80542 3.08972 4.76733 2.70398C6.20776 2.13269 9.62573 2.26453 11.2175 2.26453C12.8093 2.26453 16.2322 2.13757 17.6677 2.70398C18.6248 3.08484 19.3621 3.82214 19.7478 4.78406C20.3191 6.22449 20.1873 9.64246 20.1873 11.2343C20.1873 12.826 20.3191 16.2489 19.7478 17.6844Z" fill="white"/>
</svg>
